<?xml version="1.0" standalone="no"?>
<!DOCTYPE svg PUBLIC "-//W3C//DTD SVG 20010904//EN"
 "http://www.w3.org/TR/2001/REC-SVG-20010904/DTD/svg10.dtd">
<svg version="1.0" xmlns="http://www.w3.org/2000/svg"
 width="640.000000pt" height="640.000000pt" viewBox="0 0 640.000000 640.000000"
 preserveAspectRatio="xMidYMid meet">
<metadata>
Created by potrace 1.11, written by Peter Selinger 2001-2013
</metadata>
<g transform="translate(0.000000,640.000000) scale(0.100000,-0.100000)"
fill="#000000" stroke="none">
<path d="M1725 6169 c-151 -22 -336 -102 -455 -199 -65 -53 -96 -85 -181 -188
-45 -54 -169 -336 -154 -350 3 -3 0 -10 -5 -17 -10 -12 -18 -70 -24 -168 -3
-54 -7 -63 -47 -105 -77 -81 -94 -99 -109 -122 -8 -12 -22 -30 -31 -40 -8 -10
-24 -31 -35 -46 -10 -14 -29 -39 -41 -54 -13 -15 -23 -33 -23 -38 0 -6 -6 -15
-14 -19 -7 -4 -23 -27 -34 -50 -12 -22 -25 -43 -29 -45 -5 -1 -20 -25 -34 -53
-14 -27 -63 -121 -108 -207 -45 -87 -80 -158 -76 -158 3 0 -5 -19 -17 -42 -12
-24 -22 -47 -22 -53 -1 -10 -19 -59 -39 -105 -6 -14 -11 -29 -12 -35 0 -5 -7
-30 -15 -55 -17 -56 -15 -50 -39 -140 -11 -41 -18 -76 -16 -78 2 -2 0 -15 -6
-29 -5 -13 -11 -41 -14 -61 -2 -20 -9 -59 -14 -87 -5 -27 -7 -53 -5 -57 3 -5
2 -8 -3 -8 -4 0 -9 -19 -9 -43 -1 -23 -5 -80 -9 -127 -5 -67 -10 -291 -5 -302
0 -2 3 -43 5 -93 5 -105 16 -197 30 -270 4 -18 11 -56 20 -110 2 -11 10 -47
19 -80 8 -33 24 -97 35 -143 12 -46 30 -104 40 -130 11 -26 32 -78 47 -117 47
-124 114 -268 127 -273 4 -2 7 -9 7 -16 0 -18 24 -66 33 -66 4 0 7 -6 7 -14 0
-8 6 -21 13 -28 6 -7 21 -29 32 -50 22 -39 135 -210 145 -218 3 -3 23 -29 44
-58 21 -28 43 -52 49 -52 5 0 7 -3 4 -7 -4 -3 7 -19 23 -35 16 -15 27 -28 25
-28 -3 0 9 -15 27 -34 162 -165 158 -158 172 -261 10 -67 97 -285 118 -293 4
-2 8 -8 8 -14 0 -10 49 -79 65 -90 5 -4 7 -8 3 -8 -9 0 111 -121 158 -157 45
-35 240 -140 288 -155 30 -9 40 -12 86 -23 11 -3 30 -8 43 -11 38 -11 282 -12
338 -2 72 12 262 76 270 90 8 13 55 15 124 4 28 -5 64 -10 80 -11 17 -2 30 -4
30 -5 0 -2 13 -3 140 -14 102 -8 385 -10 450 -3 28 3 79 9 115 13 36 3 74 8
85 10 11 3 36 7 55 9 19 3 46 8 60 12 14 3 34 7 45 8 69 10 306 76 380 106 40
16 80 29 87 29 8 0 17 3 21 6 4 5 94 47 230 107 15 6 27 15 27 19 0 5 7 8 15
8 14 0 53 18 65 30 8 8 44 29 65 39 11 5 37 21 58 35 21 14 40 26 43 26 3 0
12 6 19 13 8 6 30 23 50 37 20 14 51 36 69 50 19 14 44 32 56 40 23 16 26 18
111 90 69 58 252 241 304 304 22 26 48 55 58 64 9 9 17 23 17 31 0 8 3 11 6 8
4 -4 21 15 37 41 17 26 37 51 44 55 7 4 13 14 13 21 0 7 9 21 19 33 10 11 27
35 36 54 10 19 24 39 30 44 15 12 229 425 220 425 -3 0 5 19 17 43 12 23 21
46 20 50 -1 5 4 20 12 35 7 15 24 61 37 102 12 41 26 80 31 86 4 6 6 13 3 16
-3 2 0 20 6 39 21 72 30 108 52 229 11 56 16 67 47 87 19 13 43 30 53 38 9 8
17 12 17 9 0 -10 162 157 187 193 30 43 146 263 138 263 -3 0 0 10 7 23 6 12
12 29 13 37 1 8 8 40 15 70 15 59 18 241 7 329 -23 173 -124 380 -254 517 -71
75 -147 131 -263 191 -63 34 -117 61 -120 61 -3 0 -25 6 -50 13 -25 7 -52 13
-60 13 -8 1 -19 10 -25 21 -10 20 -94 161 -118 199 -14 23 -120 172 -142 201
-9 11 -26 33 -38 49 -86 115 -297 330 -409 416 -17 14 -42 34 -54 45 -12 11
-32 27 -45 35 -12 8 -34 24 -48 35 -61 48 -204 136 -306 190 -60 32 -116 62
-122 68 -7 5 -13 6 -13 2 0 -4 -6 -3 -12 3 -24 19 -111 62 -127 62 -9 0 -29 9
-46 20 -16 11 -39 20 -51 20 -11 0 -24 4 -30 9 -9 9 -141 55 -159 56 -5 0 -15
4 -21 7 -6 4 -30 10 -53 14 -23 4 -44 10 -47 15 -2 4 -11 6 -18 3 -8 -3 -17 0
-21 5 -3 6 -11 9 -16 6 -5 -4 -15 -3 -21 1 -7 5 -19 9 -28 10 -8 1 -71 11
-140 22 -185 31 -254 36 -480 36 -201 0 -325 -10 -485 -40 l-80 -15 -107 56
c-60 31 -108 53 -108 50 0 -3 -9 -1 -21 5 -11 6 -29 13 -40 16 -21 4 -47 11
-81 20 -39 10 -260 12 -323 3z m1470 -1073 c72 -8 89 -11 140 -22 17 -4 39 -8
50 -10 11 -1 20 -3 20 -4 0 -1 7 -3 15 -5 8 -2 25 -6 38 -9 12 -3 31 -8 42
-10 11 -3 25 -8 30 -11 6 -4 22 -9 37 -11 15 -3 32 -9 39 -15 6 -5 13 -6 17
-3 3 3 18 0 34 -8 15 -8 91 -45 168 -83 134 -66 236 -124 281 -162 12 -10 32
-25 45 -33 12 -8 38 -30 56 -47 19 -18 36 -33 40 -33 9 0 173 -169 213 -219
19 -24 40 -49 45 -55 6 -6 31 -42 57 -81 47 -71 49 -83 14 -117 -20 -20 -123
-217 -140 -268 -54 -165 -64 -325 -31 -505 15 -79 97 -284 117 -293 5 -2 8 -8
8 -14 0 -9 27 -47 75 -108 28 -35 147 -150 155 -150 4 0 20 -11 36 -25 16 -14
35 -25 42 -25 15 0 15 -5 0 -55 -6 -22 -12 -42 -13 -45 -19 -81 -43 -147 -98
-261 -21 -41 -37 -83 -37 -92 0 -9 -6 -20 -14 -24 -7 -4 -28 -37 -46 -73 -18
-36 -35 -67 -39 -70 -4 -3 -15 -18 -25 -35 -21 -32 -32 -47 -58 -76 -10 -10
-18 -23 -18 -27 0 -18 -192 -217 -270 -282 -23 -19 -47 -39 -54 -45 -6 -5 -34
-26 -61 -44 -28 -19 -53 -40 -57 -45 -4 -6 -8 -7 -8 -2 0 5 -10 0 -22 -11 -13
-11 -33 -24 -45 -28 -13 -3 -23 -11 -23 -16 0 -5 -7 -9 -15 -9 -8 0 -15 -4
-15 -10 0 -5 -3 -9 -7 -8 -5 1 -36 -12 -70 -30 -34 -18 -69 -32 -78 -32 -8 0
-15 -4 -15 -9 0 -5 -15 -13 -32 -16 -18 -4 -35 -10 -38 -14 -8 -10 -241 -83
-247 -77 -3 3 -13 1 -23 -4 -9 -5 -31 -12 -49 -15 -56 -9 -86 -15 -111 -20
-14 -3 -65 -7 -114 -10 -49 -2 -90 -6 -92 -8 -4 -3 -126 1 -129 5 -2 2 -5 23
-9 48 -21 162 -80 311 -178 447 -43 58 -145 163 -159 163 -6 0 -8 4 -4 9 3 5
-5 13 -17 17 -13 4 -27 13 -33 19 -12 15 -245 139 -245 130 0 -3 -9 -1 -21 5
-20 11 -46 19 -84 24 -11 2 -20 4 -20 5 0 15 -282 23 -345 10 -25 -5 -54 -11
-65 -13 -47 -7 -203 -62 -215 -76 -5 -5 -58 -30 -64 -30 -2 0 -16 19 -32 43
-16 23 -31 44 -34 47 -10 10 -31 46 -43 73 -6 15 -15 27 -19 27 -4 0 -8 5 -8
10 0 6 -10 27 -23 48 -12 20 -33 62 -46 92 -13 30 -32 73 -42 95 -9 22 -22 58
-29 80 -6 22 -15 49 -20 60 -8 18 -27 84 -35 125 -2 8 -8 35 -14 60 -11 49
-16 76 -28 160 -9 68 -10 411 0 465 3 22 9 56 11 75 5 32 18 108 21 120 41
157 99 308 177 458 45 87 91 169 102 184 46 58 56 72 56 80 0 5 21 -2 48 -15
26 -13 61 -28 77 -32 17 -5 35 -9 40 -11 14 -4 56 -14 85 -21 14 -3 41 -6 60
-8 19 -2 37 -4 40 -5 11 -4 142 0 185 5 140 17 255 57 385 134 84 51 88 53
136 99 18 18 34 30 34 26 0 -4 10 6 22 22 12 16 31 38 43 49 11 12 31 36 44
55 28 39 130 233 136 258 2 9 13 51 24 92 11 41 18 76 16 79 -3 2 2 12 10 21
12 13 37 15 152 14 76 0 169 -4 208 -8z"/>
</g>
</svg>
